<svg width="24" height="24" viewBox="0 0 24 24" fill="none" xmlns="http://www.w3.org/2000/svg">
<path fill-rule="evenodd" clip-rule="evenodd" d="M16.32 9.76305C15.9456 9.39083 15.3408 9.39083 14.9664 9.76305L11.52 13.1614L8.12161 9.76305C7.74717 9.39083 7.14244 9.39083 6.76801 9.76305C6.58627 9.9433 6.48404 10.1887 6.48404 10.4446C6.48404 10.7006 6.58627 10.946 6.76801 11.1262L10.8384 15.1966C11.0187 15.3784 11.264 15.4806 11.52 15.4806C11.776 15.4806 12.0213 15.3784 12.2016 15.1966L16.32 11.1262C16.5017 10.946 16.604 10.7006 16.604 10.4446C16.604 10.1887 16.5017 9.9433 16.32 9.76305Z" fill="#395319"/>
</svg>
